<svg
    xmlns="http://www.w3.org/2000/svg"
    viewBox="0 0 512 512"
    id="vector">
    <path
        id="path"
        d="M 428 219.7 L 428 470 C 428 487.7 413.7 502 396 502 L 62 502 C 44.3 502 30 487.7 30 470 L 30 192 L 400.3 192 C 415.6 192 428 204.4 428 219.7 Z"
        fill="#c47ac4"/>
    <path
        id="path_1"
        d="M 482 274.1 L 482 274.1 C 482 292.7 466.9 307.8 448.3 307.8 L 328 307.8 C 299.3 307.8 276 331.1 276 359.8 L 276 359.8 C 276 388.5 299.3 411.8 328 411.8 L 444 411.8 C 465 411.8 482 394.8 482 373.8 L 482 373.8 L 482 274.1 Z"
        fill="#c47ac4"/>
    <path
        id="path_2"
        d="M 309 112.2 M 272 112.2 C 272 104.388 274.474 96.772 279.066 90.452 C 283.658 84.132 290.136 79.425 297.566 77.011 C 304.996 74.597 313.004 74.597 320.434 77.011 C 327.864 79.425 334.342 84.132 338.934 90.452 C 343.526 96.772 346 104.388 346 112.2 C 346 120.012 343.526 127.628 338.934 133.948 C 334.342 140.268 327.864 144.975 320.434 147.389 C 313.004 149.803 304.996 149.803 297.566 147.389 C 290.136 144.975 283.658 140.268 279.066 133.948 C 274.474 127.628 272 120.012 272 112.2"
        fill="#734ead"/>
    <path
        id="path_3"
        d="M 212 47 M 175 47 C 175 37.191 178.901 27.773 185.837 20.837 C 192.773 13.901 202.191 10 212 10 C 221.809 10 231.227 13.901 238.163 20.837 C 245.099 27.773 249 37.191 249 47 C 249 56.809 245.099 66.227 238.163 73.163 C 231.227 80.099 221.809 84 212 84 C 202.191 84 192.773 80.099 185.837 73.163 C 178.901 66.227 175 56.809 175 47"
        fill="#734ead"/>
    <path
        id="path_4"
        d="M 450 118 L 391.5 118 C 386 118 381.5 122.5 381.5 128 C 381.5 133.5 386 138 391.5 138 L 450 138 C 462.1 138 472 147.9 472 160 L 472 274.1 C 472 287.2 461.4 297.8 448.3 297.8 L 438 297.8 L 438 224 C 438 200.8 419.2 182 396 182 L 248.5 182 L 248.5 151.5 C 248.5 146 244 141.5 238.5 141.5 C 233 141.5 228.5 146 228.5 151.5 L 228.5 182 L 62 182 C 49.9 182 40 172.1 40 160 C 40 147.9 49.9 138 62 138 L 128.2 138 C 133.7 138 138.2 133.5 138.2 128 C 138.2 122.5 133.7 118 128.2 118 L 62 118 C 38.8 118 20 136.8 20 160 C 20 160.6 20 161.1 20 161.7 C 20 162 20 162.3 20 162.5 L 20 470 C 20 493.2 38.8 512 62 512 L 450 512 C 473.2 512 492 493.2 492 470 L 492 160 C 492 136.8 473.2 118 450 118 Z M 472 310.8 L 472 373.8 C 472 389.2 459.4 401.8 444 401.8 L 328 401.8 C 304.8 401.8 286 383 286 359.8 C 286 336.6 304.8 317.8 328 317.8 L 448.3 317.8 C 457 317.8 465.2 315.2 472 310.8 Z M 40 470 L 40 195.8 C 46.4 199.8 53.9 202 62 202 L 396 202 C 408.1 202 418 211.9 418 224 L 418 297.8 L 328 297.8 C 293.8 297.8 266 325.6 266 359.8 C 266 394 293.8 421.8 328 421.8 L 418 421.8 L 418 470 C 418 482 408.4 491.7 396.5 492 L 396 492 C 395.9 492 395.8 492 395.8 492 L 62 492 C 49.9 492 40 482.1 40 470 Z M 450 492 L 431.8 492 C 435.7 485.6 438 478.1 438 470 L 438 421.8 L 444 421.8 C 454.4 421.8 464.1 418.4 472 412.8 L 472 470 C 472 482.1 462.1 492 450 492 Z"
        fill="#8e0280"/>
    <path
        id="path_5"
        d="M 309 159.1 C 334.9 159.1 356 138 356 112.1 C 356 86.2 334.9 65.1 309 65.1 C 283.1 65.1 262 86.2 262 112.1 C 262 138 283.1 159.1 309 159.1 Z M 309 85.2 C 323.9 85.2 336 97.3 336 112.2 C 336 127.1 323.9 139.2 309 139.2 C 294.1 139.2 282 127.1 282 112.2 C 282 97.3 294.1 85.2 309 85.2 Z"
        fill="#2a085b"/>
    <path
        id="path_6"
        d="M 212 94 C 237.9 94 259 72.9 259 47 C 259 21.1 237.9 0 212 0 C 186.1 0 165 21.1 165 47 C 165 72.9 186.1 94 212 94 Z M 212 20 C 226.9 20 239 32.1 239 47 C 239 61.9 226.9 74 212 74 C 197.1 74 185 61.9 185 47 C 185 32.1 197.1 20 212 20 Z"
        fill="#2a085b"/>
    <path
        id="path_7"
        d="M 351.3 36.7 L 357 36.7 L 357 42.4 C 357 47.9 361.5 52.4 367 52.4 C 372.5 52.4 377 47.9 377 42.4 L 377 36.7 L 382.7 36.7 C 388.2 36.7 392.7 32.2 392.7 26.7 C 392.7 21.2 388.2 16.7 382.7 16.7 L 377 16.7 L 377 11 C 377 5.5 372.5 1 367 1 C 361.5 1 357 5.5 357 11 L 357 16.7 L 351.3 16.7 C 345.8 16.7 341.3 21.2 341.3 26.7 C 341.3 32.2 345.8 36.7 351.3 36.7 Z"
        fill="#2a085b"/>
    <path
        id="path_8"
        d="M 169.7 107.8 L 169.7 148.3 C 169.7 153.8 174.2 158.3 179.7 158.3 C 185.2 158.3 189.7 153.8 189.7 148.3 L 189.7 107.8 C 189.7 102.3 185.2 97.8 179.7 97.8 C 174.2 97.8 169.7 102.2 169.7 107.8 Z"
        fill="#2a085b"/>
    <path
        id="path_9"
        d="M 324.1 361.1 C 324.1 363.7 325.2 366.3 327 368.2 C 328.9 370.1 331.4 371.1 334.1 371.1 C 336.7 371.1 339.3 370 341.2 368.2 C 343.1 366.3 344.1 363.8 344.1 361.1 C 344.1 358.5 343 355.9 341.2 354 C 339.3 352.1 336.8 351.1 334.1 351.1 C 331.5 351.1 328.9 352.2 327 354 C 325.1 355.9 324.1 358.4 324.1 361.1 Z"
        fill="#8e0280"/>
</svg>
